<?xml version="1.0" standalone="no"?>
<!DOCTYPE svg PUBLIC "-//W3C//DTD SVG 20010904//EN"
 "http://www.w3.org/TR/2001/REC-SVG-20010904/DTD/svg10.dtd">
<svg version="1.0" xmlns="http://www.w3.org/2000/svg"
 width="450.000000pt" height="450.000000pt" viewBox="0 0 450.000000 450.000000"
 preserveAspectRatio="xMidYMid meet">

<g transform="translate(0.000000,450.000000) scale(0.100000,-0.100000)"
fill="#E74536" stroke="none">
<path d="M1965 4284 c-214 -29 -440 -101 -645 -205 -613 -311 -1024 -901
-1110 -1589 -15 -125 -12 -392 6 -521 112 -808 687 -1467 1476 -1695 328 -94
732 -99 1063 -14 827 213 1430 900 1535 1750 27 222 5 538 -55 764 -209 798
-895 1404 -1711 1511 -141 18 -421 18 -559 -1z m410 -518 c114 -52 211 -190
222 -314 3 -32 -24 -369 -61 -782 -37 -399 -69 -754 -72 -790 -8 -109 -14
-143 -35 -207 -39 -118 -129 -188 -214 -164 -106 29 -165 145 -180 356 -7 92
-91 1043 -99 1125 -22 209 -37 424 -33 468 11 101 80 217 167 277 99 69 200
79 305 31z m-13 -2448 c64 -27 141 -112 164 -180 56 -161 -14 -336 -162 -409
-71 -34 -179 -33 -250 3 -67 35 -138 115 -160 181 -89 266 159 512 408 405z"/>
</g>
</svg>
