<?xml version="1.0" encoding="utf-8"?>
<!-- Generator: Adobe Illustrator 21.0.0, SVG Export Plug-In . SVG Version: 6.00 Build 0)  -->
<!DOCTYPE svg PUBLIC "-//W3C//DTD SVG 1.1//EN" "http://www.w3.org/Graphics/SVG/1.1/DTD/svg11.dtd">
<svg version="1.1" id="Laag_1" xmlns="http://www.w3.org/2000/svg" xmlns:xlink="http://www.w3.org/1999/xlink" x="0px" y="0px"
	 width="1275px" height="850px" viewBox="0 0 1275 850" style="enable-background:new 0 0 1275 850;" xml:space="preserve">
<style type="text/css">
	.st0{fill:none;}
	.st1{fill:#E74536;}
	.st2{fill:#F7F5F0;}
</style>
<rect class="st0" width="1275" height="850"/>
<path class="st1" d="M671.6,221.7l226.5,386.4c19.6,33.5-4.5,75.6-43.3,75.6h-453c-38.8,0-62.9-42.1-43.3-75.6l226.5-386.4
	C604.3,188.6,652.2,188.6,671.6,221.7z"/>
<circle class="st2" cx="628.3" cy="591.3" r="37"/>
<path class="st2" d="M628.3,277.2c-20.4,0-37,16.5-37,37v166.3c0,20.4,16.5,37,37,37c20.4,0,37-16.5,37-37V314.1
	C665.2,293.7,648.7,277.2,628.3,277.2z"/>
</svg>
